<?xml version="1.0"?><svg xmlns="http://www.w3.org/2000/svg" width="101" height="101"><rect x="0" y="0" width="100%" height="100%" fill="rgb(0, 184, 148)" /><g fill="#ddd" style="opacity:0.037333333333333;" transform="translate(-16.974, -16.974) rotate(45, 16.974, 16.974)" ><rect x="12" y="0" width="12" height="36" /><rect x="0" y="12" width="36" height="12" /></g><g fill="#ddd" style="opacity:0.037333333333333;" transform="translate(84.87, -16.974) rotate(45, 16.974, 16.974)" ><rect x="12" y="0" width="12" height="36" /><rect x="0" y="12" width="36" height="12" /></g><g fill="#ddd" style="opacity:0.037333333333333;" transform="translate(-16.974, 84.87) rotate(45, 16.974, 16.974)" ><rect x="12" y="0" width="12" height="36" /><rect x="0" y="12" width="36" height="12" /></g><g fill="#ddd" style="opacity:0.037333333333333;" transform="translate(84.87, 84.87) rotate(45, 16.974, 16.974" ><rect x="12" y="0" width="12" height="36" /><rect x="0" y="12" width="36" height="12" /></g><g fill="#222" style="opacity:0.063333333333333;" transform="translate(0, -8.487) rotate(45, 16.974, 16.974)" ><rect x="12" y="0" width="12" height="36" /><rect x="0" y="12" width="36" height="12" /></g><g fill="#222" style="opacity:0.063333333333333;" transform="translate(0, 93.357) rotate(45, 16.974, 16.974)" ><rect x="12" y="0" width="12" height="36" /><rect x="0" y="12" width="36" height="12" /></g><g fill="#222" style="opacity:0.028666666666667;" transform="translate(16.974, -16.974) rotate(45, 16.974, 16.974)" ><rect x="12" y="0" width="12" height="36" /><rect x="0" y="12" width="36" height="12" /></g><g fill="#222" style="opacity:0.028666666666667;" transform="translate(16.974, 84.87) rotate(45, 16.974, 16.974)" ><rect x="12" y="0" width="12" height="36" /><rect x="0" y="12" width="36" height="12" /></g><g fill="#ddd" style="opacity:0.054666666666667;" transform="translate(33.948, -8.487) rotate(45, 16.974, 16.974)" ><rect x="12" y="0" width="12" height="36" /><rect x="0" y="12" width="36" height="12" /></g><g fill="#ddd" style="opacity:0.054666666666667;" transform="translate(33.948, 93.357) rotate(45, 16.974, 16.974)" ><rect x="12" y="0" width="12" height="36" /><rect x="0" y="12" width="36" height="12" /></g><g fill="#ddd" style="opacity:0.089333333333333;" transform="translate(50.922, -16.974) rotate(45, 16.974, 16.974)" ><rect x="12" y="0" width="12" height="36" /><rect x="0" y="12" width="36" height="12" /></g><g fill="#ddd" style="opacity:0.089333333333333;" transform="translate(50.922, 84.87) rotate(45, 16.974, 16.974)" ><rect x="12" y="0" width="12" height="36" /><rect x="0" y="12" width="36" height="12" /></g><g fill="#ddd" style="opacity:0.037333333333333;" transform="translate(67.896, -8.487) rotate(45, 16.974, 16.974)" ><rect x="12" y="0" width="12" height="36" /><rect x="0" y="12" width="36" height="12" /></g><g fill="#ddd" style="opacity:0.037333333333333;" transform="translate(67.896, 93.357) rotate(45, 16.974, 16.974)" ><rect x="12" y="0" width="12" height="36" /><rect x="0" y="12" width="36" height="12" /></g><g fill="#222" style="opacity:0.028666666666667;" transform="translate(-16.974, 0) rotate(45, 16.974, 16.974)" ><rect x="12" y="0" width="12" height="36" /><rect x="0" y="12" width="36" height="12" /></g><g fill="#222" style="opacity:0.028666666666667;" transform="translate(84.87, 0) rotate(45, 16.974, 16.974)" ><rect x="12" y="0" width="12" height="36" /><rect x="0" y="12" width="36" height="12" /></g><g fill="#ddd" style="opacity:0.037333333333333;" transform="translate(0, 8.487) rotate(45, 16.974, 16.974)" ><rect x="12" y="0" width="12" height="36" /><rect x="0" y="12" width="36" height="12" /></g><g fill="#222" style="opacity:0.11533333333333;" transform="translate(16.974, 0) rotate(45, 16.974, 16.974)" ><rect x="12" y="0" width="12" height="36" /><rect x="0" y="12" width="36" height="12" /></g><g fill="#ddd" style="opacity:0.124;" transform="translate(33.948, 8.487) rotate(45, 16.974, 16.974)" ><rect x="12" y="0" width="12" height="36" /><rect x="0" y="12" width="36" height="12" /></g><g fill="#ddd" style="opacity:0.054666666666667;" transform="translate(50.922, 0) rotate(45, 16.974, 16.974)" ><rect x="12" y="0" width="12" height="36" /><rect x="0" y="12" width="36" height="12" /></g><g fill="#ddd" style="opacity:0.072;" transform="translate(67.896, 8.487) rotate(45, 16.974, 16.974)" ><rect x="12" y="0" width="12" height="36" /><rect x="0" y="12" width="36" height="12" /></g><g fill="#222" style="opacity:0.15;" transform="translate(-16.974, 16.974) rotate(45, 16.974, 16.974)" ><rect x="12" y="0" width="12" height="36" /><rect x="0" y="12" width="36" height="12" /></g><g fill="#222" style="opacity:0.15;" transform="translate(84.87, 16.974) rotate(45, 16.974, 16.974)" ><rect x="12" y="0" width="12" height="36" /><rect x="0" y="12" width="36" height="12" /></g><g fill="#ddd" style="opacity:0.10666666666667;" transform="translate(0, 25.461) rotate(45, 16.974, 16.974)" ><rect x="12" y="0" width="12" height="36" /><rect x="0" y="12" width="36" height="12" /></g><g fill="#ddd" style="opacity:0.054666666666667;" transform="translate(16.974, 16.974) rotate(45, 16.974, 16.974)" ><rect x="12" y="0" width="12" height="36" /><rect x="0" y="12" width="36" height="12" /></g><g fill="#222" style="opacity:0.098;" transform="translate(33.948, 25.461) rotate(45, 16.974, 16.974)" ><rect x="12" y="0" width="12" height="36" /><rect x="0" y="12" width="36" height="12" /></g><g fill="#ddd" style="opacity:0.14133333333333;" transform="translate(50.922, 16.974) rotate(45, 16.974, 16.974)" ><rect x="12" y="0" width="12" height="36" /><rect x="0" y="12" width="36" height="12" /></g><g fill="#222" style="opacity:0.11533333333333;" transform="translate(67.896, 25.461) rotate(45, 16.974, 16.974)" ><rect x="12" y="0" width="12" height="36" /><rect x="0" y="12" width="36" height="12" /></g><g fill="#222" style="opacity:0.046;" transform="translate(-16.974, 33.948) rotate(45, 16.974, 16.974)" ><rect x="12" y="0" width="12" height="36" /><rect x="0" y="12" width="36" height="12" /></g><g fill="#222" style="opacity:0.046;" transform="translate(84.87, 33.948) rotate(45, 16.974, 16.974)" ><rect x="12" y="0" width="12" height="36" /><rect x="0" y="12" width="36" height="12" /></g><g fill="#222" style="opacity:0.13266666666667;" transform="translate(0, 42.435) rotate(45, 16.974, 16.974)" ><rect x="12" y="0" width="12" height="36" /><rect x="0" y="12" width="36" height="12" /></g><g fill="#222" style="opacity:0.046;" transform="translate(16.974, 33.948) rotate(45, 16.974, 16.974)" ><rect x="12" y="0" width="12" height="36" /><rect x="0" y="12" width="36" height="12" /></g><g fill="#ddd" style="opacity:0.072;" transform="translate(33.948, 42.435) rotate(45, 16.974, 16.974)" ><rect x="12" y="0" width="12" height="36" /><rect x="0" y="12" width="36" height="12" /></g><g fill="#ddd" style="opacity:0.14133333333333;" transform="translate(50.922, 33.948) rotate(45, 16.974, 16.974)" ><rect x="12" y="0" width="12" height="36" /><rect x="0" y="12" width="36" height="12" /></g><g fill="#ddd" style="opacity:0.02;" transform="translate(67.896, 42.435) rotate(45, 16.974, 16.974)" ><rect x="12" y="0" width="12" height="36" /><rect x="0" y="12" width="36" height="12" /></g><g fill="#ddd" style="opacity:0.10666666666667;" transform="translate(-16.974, 50.922) rotate(45, 16.974, 16.974)" ><rect x="12" y="0" width="12" height="36" /><rect x="0" y="12" width="36" height="12" /></g><g fill="#ddd" style="opacity:0.10666666666667;" transform="translate(84.87, 50.922) rotate(45, 16.974, 16.974)" ><rect x="12" y="0" width="12" height="36" /><rect x="0" y="12" width="36" height="12" /></g><g fill="#222" style="opacity:0.028666666666667;" transform="translate(0, 59.409) rotate(45, 16.974, 16.974)" ><rect x="12" y="0" width="12" height="36" /><rect x="0" y="12" width="36" height="12" /></g><g fill="#222" style="opacity:0.098;" transform="translate(16.974, 50.922) rotate(45, 16.974, 16.974)" ><rect x="12" y="0" width="12" height="36" /><rect x="0" y="12" width="36" height="12" /></g><g fill="#ddd" style="opacity:0.10666666666667;" transform="translate(33.948, 59.409) rotate(45, 16.974, 16.974)" ><rect x="12" y="0" width="12" height="36" /><rect x="0" y="12" width="36" height="12" /></g><g fill="#ddd" style="opacity:0.072;" transform="translate(50.922, 50.922) rotate(45, 16.974, 16.974)" ><rect x="12" y="0" width="12" height="36" /><rect x="0" y="12" width="36" height="12" /></g><g fill="#ddd" style="opacity:0.10666666666667;" transform="translate(67.896, 59.409) rotate(45, 16.974, 16.974)" ><rect x="12" y="0" width="12" height="36" /><rect x="0" y="12" width="36" height="12" /></g><g fill="#ddd" style="opacity:0.10666666666667;" transform="translate(-16.974, 67.896) rotate(45, 16.974, 16.974)" ><rect x="12" y="0" width="12" height="36" /><rect x="0" y="12" width="36" height="12" /></g><g fill="#ddd" style="opacity:0.10666666666667;" transform="translate(84.87, 67.896) rotate(45, 16.974, 16.974)" ><rect x="12" y="0" width="12" height="36" /><rect x="0" y="12" width="36" height="12" /></g><g fill="#ddd" style="opacity:0.10666666666667;" transform="translate(-16.974, -33.948) rotate(45, 16.974, 16.974)" ><rect x="12" y="0" width="12" height="36" /><rect x="0" y="12" width="36" height="12" /></g><g fill="#ddd" style="opacity:0.02;" transform="translate(0, 76.383) rotate(45, 16.974, 16.974)" ><rect x="12" y="0" width="12" height="36" /><rect x="0" y="12" width="36" height="12" /></g><g fill="#ddd" style="opacity:0.02;" transform="translate(0, -25.461) rotate(45, 16.974, 16.974)" ><rect x="12" y="0" width="12" height="36" /><rect x="0" y="12" width="36" height="12" /></g><g fill="#ddd" style="opacity:0.10666666666667;" transform="translate(16.974, 67.896) rotate(45, 16.974, 16.974)" ><rect x="12" y="0" width="12" height="36" /><rect x="0" y="12" width="36" height="12" /></g><g fill="#ddd" style="opacity:0.10666666666667;" transform="translate(16.974, -33.948) rotate(45, 16.974, 16.974)" ><rect x="12" y="0" width="12" height="36" /><rect x="0" y="12" width="36" height="12" /></g><g fill="#222" style="opacity:0.080666666666667;" transform="translate(33.948, 76.383) rotate(45, 16.974, 16.974)" ><rect x="12" y="0" width="12" height="36" /><rect x="0" y="12" width="36" height="12" /></g><g fill="#222" style="opacity:0.080666666666667;" transform="translate(33.948, -25.461) rotate(45, 16.974, 16.974)" ><rect x="12" y="0" width="12" height="36" /><rect x="0" y="12" width="36" height="12" /></g><g fill="#222" style="opacity:0.080666666666667;" transform="translate(50.922, 67.896) rotate(45, 16.974, 16.974)" ><rect x="12" y="0" width="12" height="36" /><rect x="0" y="12" width="36" height="12" /></g><g fill="#222" style="opacity:0.080666666666667;" transform="translate(50.922, -33.948) rotate(45, 16.974, 16.974)" ><rect x="12" y="0" width="12" height="36" /><rect x="0" y="12" width="36" height="12" /></g><g fill="#ddd" style="opacity:0.072;" transform="translate(67.896, 76.383) rotate(45, 16.974, 16.974)" ><rect x="12" y="0" width="12" height="36" /><rect x="0" y="12" width="36" height="12" /></g><g fill="#ddd" style="opacity:0.072;" transform="translate(67.896, -25.461) rotate(45, 16.974, 16.974)" ><rect x="12" y="0" width="12" height="36" /><rect x="0" y="12" width="36" height="12" /></g></svg>