<?xml version="1.0"?><svg xmlns="http://www.w3.org/2000/svg" width="138" height="138"><rect x="0" y="0" width="100%" height="100%" fill="rgb(108, 92, 231)" /><polyline points="0, 0, 17.333333333333, 17.333333333333, 0, 17.333333333333, 0, 0" stroke="#000" stroke-opacity="0.02" fill-opacity="0.028666666666667" fill="#222" transform="translate(0, 17.333333333333) scale(1, -1)" /><polyline points="0, 0, 17.333333333333, 17.333333333333, 0, 17.333333333333, 0, 0" stroke="#000" stroke-opacity="0.02" fill-opacity="0.028666666666667" fill="#222" transform="translate(34.666666666667, 17.333333333333) scale(-1, -1)" /><polyline points="0, 0, 17.333333333333, 17.333333333333, 0, 17.333333333333, 0, 0" stroke="#000" stroke-opacity="0.02" fill-opacity="0.028666666666667" fill="#222" transform="translate(0, 17.333333333333) scale(1, 1)" /><polyline points="0, 0, 17.333333333333, 17.333333333333, 0, 17.333333333333, 0, 0" stroke="#000" stroke-opacity="0.02" fill-opacity="0.028666666666667" fill="#222" transform="translate(34.666666666667, 17.333333333333) scale(-1, 1)" /><polyline points="0, 0, 17.333333333333, 17.333333333333, 0, 17.333333333333, 0, 0" stroke="#000" stroke-opacity="0.02" fill-opacity="0.072" fill="#ddd" transform="translate(52, 0) scale(-1, 1)" /><polyline points="0, 0, 17.333333333333, 17.333333333333, 0, 17.333333333333, 0, 0" stroke="#000" stroke-opacity="0.02" fill-opacity="0.072" fill="#ddd" transform="translate(52, 34.666666666667) scale(1, -1)" /><polyline points="0, 0, 17.333333333333, 17.333333333333, 0, 17.333333333333, 0, 0" stroke="#000" stroke-opacity="0.02" fill-opacity="0.15" fill="#222" transform="translate(52, 34.666666666667) scale(-1, -1)" /><polyline points="0, 0, 17.333333333333, 17.333333333333, 0, 17.333333333333, 0, 0" stroke="#000" stroke-opacity="0.02" fill-opacity="0.15" fill="#222" transform="translate(52, 0) scale(1, 1)" /><polyline points="0, 0, 17.333333333333, 17.333333333333, 0, 17.333333333333, 0, 0" stroke="#000" stroke-opacity="0.02" fill-opacity="0.15" fill="#222" transform="translate(69.333333333333, 17.333333333333) scale(1, -1)" /><polyline points="0, 0, 17.333333333333, 17.333333333333, 0, 17.333333333333, 0, 0" stroke="#000" stroke-opacity="0.02" fill-opacity="0.15" fill="#222" transform="translate(104, 17.333333333333) scale(-1, -1)" /><polyline points="0, 0, 17.333333333333, 17.333333333333, 0, 17.333333333333, 0, 0" stroke="#000" stroke-opacity="0.02" fill-opacity="0.15" fill="#222" transform="translate(69.333333333333, 17.333333333333) scale(1, 1)" /><polyline points="0, 0, 17.333333333333, 17.333333333333, 0, 17.333333333333, 0, 0" stroke="#000" stroke-opacity="0.02" fill-opacity="0.15" fill="#222" transform="translate(104, 17.333333333333) scale(-1, 1)" /><polyline points="0, 0, 17.333333333333, 17.333333333333, 0, 17.333333333333, 0, 0" stroke="#000" stroke-opacity="0.02" fill-opacity="0.13266666666667" fill="#222" transform="translate(121.33333333333, 0) scale(-1, 1)" /><polyline points="0, 0, 17.333333333333, 17.333333333333, 0, 17.333333333333, 0, 0" stroke="#000" stroke-opacity="0.02" fill-opacity="0.13266666666667" fill="#222" transform="translate(121.33333333333, 34.666666666667) scale(1, -1)" /><polyline points="0, 0, 17.333333333333, 17.333333333333, 0, 17.333333333333, 0, 0" stroke="#000" stroke-opacity="0.02" fill-opacity="0.10666666666667" fill="#ddd" transform="translate(121.33333333333, 34.666666666667) scale(-1, -1)" /><polyline points="0, 0, 17.333333333333, 17.333333333333, 0, 17.333333333333, 0, 0" stroke="#000" stroke-opacity="0.02" fill-opacity="0.10666666666667" fill="#ddd" transform="translate(121.33333333333, 0) scale(1, 1)" /><polyline points="0, 0, 17.333333333333, 17.333333333333, 0, 17.333333333333, 0, 0" stroke="#000" stroke-opacity="0.02" fill-opacity="0.10666666666667" fill="#ddd" transform="translate(17.333333333333, 34.666666666667) scale(-1, 1)" /><polyline points="0, 0, 17.333333333333, 17.333333333333, 0, 17.333333333333, 0, 0" stroke="#000" stroke-opacity="0.02" fill-opacity="0.10666666666667" fill="#ddd" transform="translate(17.333333333333, 69.333333333333) scale(1, -1)" /><polyline points="0, 0, 17.333333333333, 17.333333333333, 0, 17.333333333333, 0, 0" stroke="#000" stroke-opacity="0.02" fill-opacity="0.028666666666667" fill="#222" transform="translate(17.333333333333, 69.333333333333) scale(-1, -1)" /><polyline points="0, 0, 17.333333333333, 17.333333333333, 0, 17.333333333333, 0, 0" stroke="#000" stroke-opacity="0.02" fill-opacity="0.028666666666667" fill="#222" transform="translate(17.333333333333, 34.666666666667) scale(1, 1)" /><polyline points="0, 0, 17.333333333333, 17.333333333333, 0, 17.333333333333, 0, 0" stroke="#000" stroke-opacity="0.02" fill-opacity="0.028666666666667" fill="#222" transform="translate(34.666666666667, 52) scale(1, -1)" /><polyline points="0, 0, 17.333333333333, 17.333333333333, 0, 17.333333333333, 0, 0" stroke="#000" stroke-opacity="0.02" fill-opacity="0.028666666666667" fill="#222" transform="translate(69.333333333333, 52) scale(-1, -1)" /><polyline points="0, 0, 17.333333333333, 17.333333333333, 0, 17.333333333333, 0, 0" stroke="#000" stroke-opacity="0.02" fill-opacity="0.028666666666667" fill="#222" transform="translate(34.666666666667, 52) scale(1, 1)" /><polyline points="0, 0, 17.333333333333, 17.333333333333, 0, 17.333333333333, 0, 0" stroke="#000" stroke-opacity="0.02" fill-opacity="0.028666666666667" fill="#222" transform="translate(69.333333333333, 52) scale(-1, 1)" /><polyline points="0, 0, 17.333333333333, 17.333333333333, 0, 17.333333333333, 0, 0" stroke="#000" stroke-opacity="0.02" fill-opacity="0.028666666666667" fill="#222" transform="translate(86.666666666667, 34.666666666667) scale(-1, 1)" /><polyline points="0, 0, 17.333333333333, 17.333333333333, 0, 17.333333333333, 0, 0" stroke="#000" stroke-opacity="0.02" fill-opacity="0.028666666666667" fill="#222" transform="translate(86.666666666667, 69.333333333333) scale(1, -1)" /><polyline points="0, 0, 17.333333333333, 17.333333333333, 0, 17.333333333333, 0, 0" stroke="#000" stroke-opacity="0.02" fill-opacity="0.028666666666667" fill="#222" transform="translate(86.666666666667, 69.333333333333) scale(-1, -1)" /><polyline points="0, 0, 17.333333333333, 17.333333333333, 0, 17.333333333333, 0, 0" stroke="#000" stroke-opacity="0.02" fill-opacity="0.028666666666667" fill="#222" transform="translate(86.666666666667, 34.666666666667) scale(1, 1)" /><polyline points="0, 0, 17.333333333333, 17.333333333333, 0, 17.333333333333, 0, 0" stroke="#000" stroke-opacity="0.02" fill-opacity="0.028666666666667" fill="#222" transform="translate(104, 52) scale(1, -1)" /><polyline points="0, 0, 17.333333333333, 17.333333333333, 0, 17.333333333333, 0, 0" stroke="#000" stroke-opacity="0.02" fill-opacity="0.028666666666667" fill="#222" transform="translate(138.66666666667, 52) scale(-1, -1)" /><polyline points="0, 0, 17.333333333333, 17.333333333333, 0, 17.333333333333, 0, 0" stroke="#000" stroke-opacity="0.02" fill-opacity="0.028666666666667" fill="#222" transform="translate(104, 52) scale(1, 1)" /><polyline points="0, 0, 17.333333333333, 17.333333333333, 0, 17.333333333333, 0, 0" stroke="#000" stroke-opacity="0.02" fill-opacity="0.028666666666667" fill="#222" transform="translate(138.66666666667, 52) scale(-1, 1)" /><polyline points="0, 0, 17.333333333333, 17.333333333333, 0, 17.333333333333, 0, 0" stroke="#000" stroke-opacity="0.02" fill-opacity="0.02" fill="#ddd" transform="translate(0, 86.666666666667) scale(1, -1)" /><polyline points="0, 0, 17.333333333333, 17.333333333333, 0, 17.333333333333, 0, 0" stroke="#000" stroke-opacity="0.02" fill-opacity="0.02" fill="#ddd" transform="translate(34.666666666667, 86.666666666667) scale(-1, -1)" /><polyline points="0, 0, 17.333333333333, 17.333333333333, 0, 17.333333333333, 0, 0" stroke="#000" stroke-opacity="0.02" fill-opacity="0.02" fill="#ddd" transform="translate(0, 86.666666666667) scale(1, 1)" /><polyline points="0, 0, 17.333333333333, 17.333333333333, 0, 17.333333333333, 0, 0" stroke="#000" stroke-opacity="0.02" fill-opacity="0.02" fill="#ddd" transform="translate(34.666666666667, 86.666666666667) scale(-1, 1)" /><polyline points="0, 0, 17.333333333333, 17.333333333333, 0, 17.333333333333, 0, 0" stroke="#000" stroke-opacity="0.02" fill-opacity="0.11533333333333" fill="#222" transform="translate(52, 69.333333333333) scale(-1, 1)" /><polyline points="0, 0, 17.333333333333, 17.333333333333, 0, 17.333333333333, 0, 0" stroke="#000" stroke-opacity="0.02" fill-opacity="0.11533333333333" fill="#222" transform="translate(52, 104) scale(1, -1)" /><polyline points="0, 0, 17.333333333333, 17.333333333333, 0, 17.333333333333, 0, 0" stroke="#000" stroke-opacity="0.02" fill-opacity="0.124" fill="#ddd" transform="translate(52, 104) scale(-1, -1)" /><polyline points="0, 0, 17.333333333333, 17.333333333333, 0, 17.333333333333, 0, 0" stroke="#000" stroke-opacity="0.02" fill-opacity="0.124" fill="#ddd" transform="translate(52, 69.333333333333) scale(1, 1)" /><polyline points="0, 0, 17.333333333333, 17.333333333333, 0, 17.333333333333, 0, 0" stroke="#000" stroke-opacity="0.02" fill-opacity="0.124" fill="#ddd" transform="translate(69.333333333333, 86.666666666667) scale(1, -1)" /><polyline points="0, 0, 17.333333333333, 17.333333333333, 0, 17.333333333333, 0, 0" stroke="#000" stroke-opacity="0.02" fill-opacity="0.124" fill="#ddd" transform="translate(104, 86.666666666667) scale(-1, -1)" /><polyline points="0, 0, 17.333333333333, 17.333333333333, 0, 17.333333333333, 0, 0" stroke="#000" stroke-opacity="0.02" fill-opacity="0.124" fill="#ddd" transform="translate(69.333333333333, 86.666666666667) scale(1, 1)" /><polyline points="0, 0, 17.333333333333, 17.333333333333, 0, 17.333333333333, 0, 0" stroke="#000" stroke-opacity="0.02" fill-opacity="0.124" fill="#ddd" transform="translate(104, 86.666666666667) scale(-1, 1)" /><polyline points="0, 0, 17.333333333333, 17.333333333333, 0, 17.333333333333, 0, 0" stroke="#000" stroke-opacity="0.02" fill-opacity="0.02" fill="#ddd" transform="translate(121.33333333333, 69.333333333333) scale(-1, 1)" /><polyline points="0, 0, 17.333333333333, 17.333333333333, 0, 17.333333333333, 0, 0" stroke="#000" stroke-opacity="0.02" fill-opacity="0.02" fill="#ddd" transform="translate(121.33333333333, 104) scale(1, -1)" /><polyline points="0, 0, 17.333333333333, 17.333333333333, 0, 17.333333333333, 0, 0" stroke="#000" stroke-opacity="0.02" fill-opacity="0.098" fill="#222" transform="translate(121.33333333333, 104) scale(-1, -1)" /><polyline points="0, 0, 17.333333333333, 17.333333333333, 0, 17.333333333333, 0, 0" stroke="#000" stroke-opacity="0.02" fill-opacity="0.098" fill="#222" transform="translate(121.33333333333, 69.333333333333) scale(1, 1)" /><polyline points="0, 0, 17.333333333333, 17.333333333333, 0, 17.333333333333, 0, 0" stroke="#000" stroke-opacity="0.02" fill-opacity="0.098" fill="#222" transform="translate(17.333333333333, 104) scale(-1, 1)" /><polyline points="0, 0, 17.333333333333, 17.333333333333, 0, 17.333333333333, 0, 0" stroke="#000" stroke-opacity="0.02" fill-opacity="0.098" fill="#222" transform="translate(17.333333333333, 138.66666666667) scale(1, -1)" /><polyline points="0, 0, 17.333333333333, 17.333333333333, 0, 17.333333333333, 0, 0" stroke="#000" stroke-opacity="0.02" fill-opacity="0.02" fill="#ddd" transform="translate(17.333333333333, 138.66666666667) scale(-1, -1)" /><polyline points="0, 0, 17.333333333333, 17.333333333333, 0, 17.333333333333, 0, 0" stroke="#000" stroke-opacity="0.02" fill-opacity="0.02" fill="#ddd" transform="translate(17.333333333333, 104) scale(1, 1)" /><polyline points="0, 0, 17.333333333333, 17.333333333333, 0, 17.333333333333, 0, 0" stroke="#000" stroke-opacity="0.02" fill-opacity="0.02" fill="#ddd" transform="translate(34.666666666667, 121.33333333333) scale(1, -1)" /><polyline points="0, 0, 17.333333333333, 17.333333333333, 0, 17.333333333333, 0, 0" stroke="#000" stroke-opacity="0.02" fill-opacity="0.02" fill="#ddd" transform="translate(69.333333333333, 121.33333333333) scale(-1, -1)" /><polyline points="0, 0, 17.333333333333, 17.333333333333, 0, 17.333333333333, 0, 0" stroke="#000" stroke-opacity="0.02" fill-opacity="0.02" fill="#ddd" transform="translate(34.666666666667, 121.33333333333) scale(1, 1)" /><polyline points="0, 0, 17.333333333333, 17.333333333333, 0, 17.333333333333, 0, 0" stroke="#000" stroke-opacity="0.02" fill-opacity="0.02" fill="#ddd" transform="translate(69.333333333333, 121.33333333333) scale(-1, 1)" /><polyline points="0, 0, 17.333333333333, 17.333333333333, 0, 17.333333333333, 0, 0" stroke="#000" stroke-opacity="0.02" fill-opacity="0.13266666666667" fill="#222" transform="translate(86.666666666667, 104) scale(-1, 1)" /><polyline points="0, 0, 17.333333333333, 17.333333333333, 0, 17.333333333333, 0, 0" stroke="#000" stroke-opacity="0.02" fill-opacity="0.13266666666667" fill="#222" transform="translate(86.666666666667, 138.66666666667) scale(1, -1)" /><polyline points="0, 0, 17.333333333333, 17.333333333333, 0, 17.333333333333, 0, 0" stroke="#000" stroke-opacity="0.02" fill-opacity="0.072" fill="#ddd" transform="translate(86.666666666667, 138.66666666667) scale(-1, -1)" /><polyline points="0, 0, 17.333333333333, 17.333333333333, 0, 17.333333333333, 0, 0" stroke="#000" stroke-opacity="0.02" fill-opacity="0.072" fill="#ddd" transform="translate(86.666666666667, 104) scale(1, 1)" /><polyline points="0, 0, 17.333333333333, 17.333333333333, 0, 17.333333333333, 0, 0" stroke="#000" stroke-opacity="0.02" fill-opacity="0.072" fill="#ddd" transform="translate(104, 121.33333333333) scale(1, -1)" /><polyline points="0, 0, 17.333333333333, 17.333333333333, 0, 17.333333333333, 0, 0" stroke="#000" stroke-opacity="0.02" fill-opacity="0.072" fill="#ddd" transform="translate(138.66666666667, 121.33333333333) scale(-1, -1)" /><polyline points="0, 0, 17.333333333333, 17.333333333333, 0, 17.333333333333, 0, 0" stroke="#000" stroke-opacity="0.02" fill-opacity="0.072" fill="#ddd" transform="translate(104, 121.33333333333) scale(1, 1)" /><polyline points="0, 0, 17.333333333333, 17.333333333333, 0, 17.333333333333, 0, 0" stroke="#000" stroke-opacity="0.02" fill-opacity="0.072" fill="#ddd" transform="translate(138.66666666667, 121.33333333333) scale(-1, 1)" /></svg>