<?xml version="1.0"?><svg xmlns="http://www.w3.org/2000/svg" width="156" height="180"><rect x="0" y="0" width="100%" height="100%" fill="rgb(178, 190, 195)" /><rect x="-16.5" y="-16.5" width="33" height="33" stroke="#000" stroke-opacity="0.02" fill="#ddd" fill-opacity="0.124" stroke-width="1" /><rect x="139.65767664977" y="-16.5" width="33" height="33" stroke="#000" stroke-opacity="0.02" fill="#ddd" fill-opacity="0.124" stroke-width="1" /><rect x="-16.5" y="163.81535329955" width="33" height="33" stroke="#000" stroke-opacity="0.02" fill="#ddd" fill-opacity="0.124" stroke-width="1" /><rect x="139.65767664977" y="163.81535329955" width="33" height="33" stroke="#000" stroke-opacity="0.02" fill="#ddd" fill-opacity="0.124" stroke-width="1" /><rect x="61.578838324886" y="28.578838324886" width="33" height="33" stroke="#000" stroke-opacity="0.02" fill="#ddd" fill-opacity="0.02" stroke-width="1" /><rect x="-16.5" y="73.657676649773" width="33" height="33" stroke="#000" stroke-opacity="0.02" fill="#ddd" fill-opacity="0.14133333333333" stroke-width="1" /><rect x="139.65767664977" y="73.657676649773" width="33" height="33" stroke="#000" stroke-opacity="0.02" fill="#ddd" fill-opacity="0.14133333333333" stroke-width="1" /><rect x="61.578838324886" y="118.73651497466" width="33" height="33" stroke="#000" stroke-opacity="0.02" fill="#ddd" fill-opacity="0.10666666666667" stroke-width="1" /><polyline points="0, 0, 28.578838324886, 16.5, 0, 33, 0, 0" stroke="#000" stroke-opacity="0.02" fill="#ddd" fill-opacity="0.02" stroke-width="1" transform="translate(16.5, -16.5) rotate(0, 16.5, 14.289419162443)" /><polyline points="0, 0, 28.578838324886, 16.5, 0, 33, 0, 0" stroke="#000" stroke-opacity="0.02" fill="#ddd" fill-opacity="0.02" stroke-width="1" transform="translate(16.5, 196.81535329955) rotate(0, 16.5, 14.289419162443) scale(1, -1)" /><polyline points="0, 0, 28.578838324886, 16.5, 0, 33, 0, 0" stroke="#000" stroke-opacity="0.02" fill="#ddd" fill-opacity="0.124" stroke-width="1" transform="translate(139.65767664977, -16.5) rotate(0, 16.5, 14.289419162443) scale(-1, 1)" /><polyline points="0, 0, 28.578838324886, 16.5, 0, 33, 0, 0" stroke="#000" stroke-opacity="0.02" fill="#ddd" fill-opacity="0.124" stroke-width="1" transform="translate(139.65767664977, 196.81535329955) rotate(0, 16.5, 14.289419162443) scale(-1, -1)" /><polyline points="0, 0, 28.578838324886, 16.5, 0, 33, 0, 0" stroke="#000" stroke-opacity="0.02" fill="#ddd" fill-opacity="0.089333333333333" stroke-width="1" transform="translate(94.578838324886, 28.578838324886)" /><polyline points="0, 0, 28.578838324886, 16.5, 0, 33, 0, 0" stroke="#000" stroke-opacity="0.02" fill="#ddd" fill-opacity="0.037333333333333" stroke-width="1" transform="translate(61.578838324886, 28.578838324886) scale(-1, 1)" /><polyline points="0, 0, 28.578838324886, 16.5, 0, 33, 0, 0" stroke="#000" stroke-opacity="0.02" fill="#222" fill-opacity="0.080666666666667" stroke-width="1" transform="translate(94.578838324886, 151.73651497466) scale(1, -1)" /><polyline points="0, 0, 28.578838324886, 16.5, 0, 33, 0, 0" stroke="#000" stroke-opacity="0.02" fill="#222" fill-opacity="0.028666666666667" stroke-width="1" transform="translate(61.578838324886, 151.73651497466) scale(-1, -1)" /><polyline points="0, 0, 28.578838324886, 16.5, 0, 33, 0, 0" stroke="#000" stroke-opacity="0.02" fill="#222" fill-opacity="0.13266666666667" stroke-width="1" transform="translate(16.5, 73.657676649773)" /><polyline points="0, 0, 28.578838324886, 16.5, 0, 33, 0, 0" stroke="#000" stroke-opacity="0.02" fill="#ddd" fill-opacity="0.10666666666667" stroke-width="1" transform="translate(139.65767664977, 73.657676649773) scale(-1, 1)" /><rect x="0" y="0" width="33" height="33" stroke="#000" stroke-opacity="0.02" fill="#222" fill-opacity="0.063333333333333" stroke-width="1" transform="translate(16.5, 16.5) rotate(-30, 0, 0)" /><rect x="0" y="0" width="33" height="33" stroke="#000" stroke-opacity="0.02" fill="#222" fill-opacity="0.13266666666667" stroke-width="1" transform="scale(-1, 1) translate(-139.65767664977, 16.5) rotate(-30, 0, 0)" /><rect x="0" y="0" width="33" height="33" stroke="#000" stroke-opacity="0.02" fill="#222" fill-opacity="0.11533333333333" stroke-width="1" transform="translate(16.5, 40.657676649773) rotate(30, 0, 33)" /><rect x="0" y="0" width="33" height="33" stroke="#000" stroke-opacity="0.02" fill="#ddd" fill-opacity="0.10666666666667" stroke-width="1" transform="scale(-1, 1) translate(-139.65767664977, 40.657676649773) rotate(30, 0, 33)" /><rect x="0" y="0" width="33" height="33" stroke="#000" stroke-opacity="0.02" fill="#ddd" fill-opacity="0.124" stroke-width="1" transform="scale(1, -1) translate(16.5, -139.65767664977) rotate(30, 0, 33)" /><rect x="0" y="0" width="33" height="33" stroke="#000" stroke-opacity="0.02" fill="#ddd" fill-opacity="0.072" stroke-width="1" transform="scale(-1, -1) translate(-139.65767664977, -139.65767664977) rotate(30, 0, 33)" /><rect x="0" y="0" width="33" height="33" stroke="#000" stroke-opacity="0.02" fill="#222" fill-opacity="0.046" stroke-width="1" transform="scale(1, -1) translate(16.5, -163.81535329955) rotate(-30, 0, 0)" /><rect x="0" y="0" width="33" height="33" stroke="#000" stroke-opacity="0.02" fill="#ddd" fill-opacity="0.037333333333333" stroke-width="1" transform="scale(-1, -1) translate(-139.65767664977, -163.81535329955) rotate(-30, 0, 0)" /></svg>